<?xml version="1.0" encoding="utf-8"?>
<svg version="1.1" id="Layer_1"
xmlns="http://www.w3.org/2000/svg"
xmlns:xlink="http://www.w3.org/1999/xlink"
xmlns:author="http://www.sothink.com"
width="377px" height="47px"
xml:space="preserve">
<g id="0" transform="matrix(1, 0, 0, 1, 0, 0)">
<path style="fill:#EC1A3B;fill-opacity:1" d="M41.9,0.8Q43.3 0.8 44.45 2.35Q45.5 4 45.5 6.2Q45.5 8.4 44.45 10.05Q43.3 11.6 41.9 11.6L0 11.6L0 0.8L41.9 0.8" />
<path style="fill:#EC1A3B;fill-opacity:1" d="M41.9,17.8Q43.3 17.8 44.45 19.35Q45.5 20.9 45.5 23.2Q45.5 25.4 44.45 27.05Q43.3 28.6 41.9 28.6L0 28.6L0 17.8L41.9 17.8" />
<path style="fill:#EC1A3B;fill-opacity:1" d="M41.9,34.65Q43.3 34.65 44.45 36.2Q45.5 37.9 45.5 40.1Q45.5 42.25 44.45 43.95Q43.3 45.5 41.9 45.5L0 45.5L0 34.65L41.9 34.65" />
<path style="fill:#EC1A3B;fill-opacity:1" d="M51.95,3.75Q51.95 2.2 53.5 1.15Q55.15 0 57.35 0Q59.55 0 61.2 1.15Q62.75 2.2 62.75 3.75L62.75 45.5L51.95 45.5L51.95 3.75" />
<path style="fill:#EC1A3B;fill-opacity:1" d="M68.95,3.75Q68.95 2.2 70.5 1.15Q72.15 0 74.35 0Q76.55 0 78.2 1.15Q79.75 2.2 79.75 3.75L79.75 45.5L68.95 45.5L68.95 3.75" />
<path style="fill:#EC1A3B;fill-opacity:1" d="M96.65,45.5L85.8 45.5L85.8 3.75Q85.8 2.2 87.35 1.15Q89.05 0 91.25 0Q93.55 0 95.1 1.15Q96.65 2.2 96.65 3.75L96.65 45.5" />
<path style="fill:#231F20;fill-opacity:1" d="M163,13.55L152.95 45.6L143.4 45.6L133.75 13.55L133.9 45.6L123.7 45.6L123.7 3.75L140.2 3.75L148.45 31.6L148.55 31.6L157.35 3.75L173.15 3.75L173.15 45.6L163 45.6L163.1 13.55L163 13.55" />
<path style="fill:#231F20;fill-opacity:1" d="M207.05,18.05Q211.95 22.45 211.95 30.05Q211.95 37.65 207.05 42.15Q202.3 46.4 194.8 46.4Q187.35 46.4 182.7 42.15Q177.8 37.65 177.8 30.05Q177.8 22.45 182.7 18.05Q187.35 13.65 194.8 13.65Q202.3 13.65 207.05 18.05M199.85,36.2Q201.4 33.75 201.4 30.05Q201.4 26.3 199.85 24Q198.15 21.25 194.8 21.25Q191.6 21.25 189.8 24Q188.25 26.3 188.25 30.05Q188.25 33.75 189.8 36.2Q191.6 38.8 194.8 38.8Q198.15 38.8 199.85 36.2" />
<path style="fill:#231F20;fill-opacity:1" d="M248.3,45.6L239 45.6L239 40.1L238.9 40.1Q237.85 42.8 235.15 44.6Q232.3 46.4 228.85 46.4Q222.5 46.4 218.9 41.35Q215.45 36.75 215.45 29.5Q215.45 23.2 218.65 18.7Q222.15 13.65 227.95 13.65Q234.6 13.65 237.95 18.45L238.1 18.45L238.1 0.65L248.3 0.65L248.3 45.6M236.55,24.25Q234.75 21.9 232.05 21.9Q229.2 21.9 227.4 24.25Q225.85 26.4 225.85 29.65Q225.85 33.5 227.55 35.7Q229.2 38 232.05 38Q234.6 38 236.45 35.85Q238.25 33.5 238.25 30.15Q238.25 26.55 236.55 24.25" />
<path style="fill:#231F20;fill-opacity:1" d="M268.1,13.65Q275.85 13.65 279.6 18.95Q282.95 23.45 282.95 31.2L282.95 33.1L262.7 33.1Q263.5 39.2 271.35 39.2Q276.25 39.2 280.25 36.75L280.25 44.35Q275.6 46.4 269.55 46.4Q262.05 46.4 257.3 42Q252.4 37.5 252.4 30.05Q252.4 22.45 256.8 18.05Q261.15 13.65 268.1 13.65M262.6,27.05L273.8 27.05Q273.8 20.5 268.25 20.5Q263.1 20.5 262.6 27.05" />
<path style="fill:#231F20;fill-opacity:1" d="M307.55,23.05L304.05 22.7Q296.7 22.7 296.7 32.5L296.7 45.6L286.55 45.6L286.55 14.45L295.8 14.45L295.8 20.1L295.95 20.1Q298.8 13.65 304.6 13.65L308.05 14.05L307.55 23.05" />
<path style="fill:#231F20;fill-opacity:1" d="M340.65,17.55Q343.25 20.9 343.25 26.15L343.25 45.6L333.05 45.6L333.05 30.55Q333.05 22.7 328.4 22.7Q322.1 22.7 322.1 32.5L322.1 45.6L312.05 45.6L312.05 14.45L321.2 14.45L321.2 20.1L321.35 20.1Q324.3 13.65 332 13.65Q337.7 13.65 340.65 17.55" />
<path style="fill:#231F20;fill-opacity:1" d="M362.45,13.65Q368.6 13.65 372.2 16.65Q376.35 20 376.35 26.7L376.35 38.3Q376.35 42.4 376.85 45.6L367.6 45.6L367.45 40.7L367.3 40.7Q363.95 46.4 358.05 46.4Q353.4 46.4 350.3 43.95Q346.95 41.35 346.95 36.45Q346.95 25.9 362.15 25.9L366.95 26.3Q366.8 20.9 360.25 20.9Q354.7 20.9 350.85 23.2L350.7 15.85Q355.85 13.65 362.45 13.65M360.6,39.2Q363.45 39.2 365.25 36.85Q366.95 34.65 366.95 31.85L362.55 31.6Q356.5 31.6 356.5 35.7Q356.5 37.25 357.65 38.3Q358.8 39.2 360.6 39.2" />
</g>
</svg>
